# xmcd
#
# Track frame offsets:
#	150
#	17317
#	32627
#	45027
#	60182
#	85327
#
# Disc length: 1408 seconds
#
# Revision: 0
# Processed by: cddbd v1.4PL0 Copyright (c) Steve Scherf et al.
# Submitted via: EasyCDDAExtractor 4.5.0.2
#
DISCID=2f057e06
DTITLE=Tahiti 80 - Songs From Outer Space
DYEAR=2001
DGENRE=Pop
TTITLE0=A Love From Outer Space (Tore Johansson Mix)
TTITLE1=Barbie Dress
TTITLE2=Desiree
TTITLE3=Montage
TTITLE4=Revolution 80 (Millennium Version)
TTITLE5=When The Sun (Sunrise Version)
EXTD=
EXTT0=
EXTT1=
EXTT2=
EXTT3=
EXTT4=
EXTT5=
PLAYORDER=
